<svg id="Layer_1" enable-background="new 0 0 512 512" height="512" viewBox="0 0 512 512" width="512" xmlns="http://www.w3.org/2000/svg"><path clip-rule="evenodd" d="m265.043 209.24-23.138 40.076c-.431.747.218 1.651 1.064 1.48l34.043-6.871c.497-.1.984.181 1.146.661l11.07 32.918c.275.817 1.383.927 1.814.181l24.769-42.901c.337-.584.018-1.32-.639-1.473-18.2-4.238-34.773-12.713-48.619-24.336-.481-.402-1.197-.276-1.51.265zm65.525 156.805c3.244-12.843-4.281-25.681-16.751-29.022l-65.394-17.523c-1.082-.289-1.675-.668-2.57-1.297-20.733-14.644-36.13-19.959-50.233-19.595-14.273.368-28.125 6.604-45.104 14.906-15.073 7.37-30.189 14.621-45.353 21.798-.483.228-.7.795-.495 1.288l39.733 95.407c.222.534.84.767 1.36.515l14.63-7.113c11.431-5.557 23.153-6.541 35.356-2.998l72.122 20.941c19.041 5.529 43.881-4.137 63.585-11.806 46.521-18.099 93.175-35.917 139.756-53.867 10.89-4.196 18.743-15.031 20.791-25.984 1.456-7.787-.056-15.77-6.632-20.788-8.236-6.284-23.89-8.153-49.569-.62l-89.804 26.346c-.454.133-.746.55-.717 1.022.248 3.943-.126 7.986-1.202 12.003-5.356 19.991-26.148 32.008-46.138 26.658l-86.916-23.289c-3.73-.997-5.946-4.829-4.949-8.559s4.829-5.946 8.559-4.949l86.888 23.28c12.747 3.224 25.472-4.113 29.047-16.754zm-197.196 114.427-34.674 14.398c-7.523 3.124-16.205-.458-19.337-7.978-19.571-46.996-39.143-93.992-58.714-140.989-3.165-7.6.383-16.2 7.986-19.357l34.674-14.398c7.523-3.124 16.205.458 19.337 7.978 19.572 46.996 39.144 93.993 58.715 140.989 3.164 7.601-.383 16.2-7.987 19.357zm208.469-464.472c56.987 0 103.184 46.197 103.184 103.184s-46.197 103.185-103.184 103.185-103.184-46.197-103.184-103.185c0-56.986 46.197-103.184 103.184-103.184zm22.288 82.79-35.714 28.945c-.459.372-1.13.271-1.46-.219l-9.9-14.744c-2.144-3.201-6.478-4.058-9.679-1.914s-4.058 6.478-1.914 9.68l14.707 21.905c2.309 3.463 7.011 4.266 10.261 1.624l42.503-34.447c2.99-2.431 3.443-6.826 1.012-9.816s-6.826-3.445-9.816-1.014zm-22.288-45.01c-36.12 0-65.404 29.284-65.404 65.404s29.284 65.404 65.404 65.404 65.404-29.284 65.404-65.404-29.285-65.404-65.404-65.404zm0 14.001c-28.391 0-51.404 23.013-51.404 51.404s23.013 51.404 51.404 51.404 51.404-23.013 51.404-51.404c0-28.392-23.014-51.404-51.404-51.404zm76.798 141.459c-.313-.542-1.03-.668-1.509-.266-13.846 11.622-30.42 20.097-48.619 24.336-.657.153-.976.89-.639 1.473l24.768 42.901c.431.746 1.539.636 1.814-.181l11.071-32.918c.162-.48.649-.762 1.146-.661l34.043 6.871c.845.171 1.495-.733 1.064-1.48z" fill-rule="evenodd"/></svg>