<svg id="Layer_1" enable-background="new 0 0 512 512" viewBox="0 0 512 512" xmlns="http://www.w3.org/2000/svg"><path clip-rule="evenodd" d="m354.171 387.523c0-9.01 7.299-16.366 16.366-16.366s16.365 7.356 16.365 16.366c0 9.039-7.327 16.366-16.365 16.366-9.039-.001-16.366-7.328-16.366-16.366zm43.033-79.043h-53.334v-5.908c0-3.233 2.675-5.908 5.908-5.908h41.52c3.233 0 5.907 2.675 5.907 5.908v5.908zm27.7 16h26.425v30.341c0 5.087-4.257 8.567-8.211 11.069-7.987 5.053-23.761 8.452-42.302 10.184-4.626-12.22-16.438-20.916-30.278-20.916-13.846 0-25.661 8.702-30.284 20.93-18.507-1.724-34.269-5.118-42.297-10.198-3.952-2.501-8.211-5.986-8.211-11.069v-30.341h26.425v13.654c0 9.008 7.341 16.349 16.349 16.349h76.036c9.008 0 16.349-7.341 16.349-16.349v-13.654zm-92.734 0h76.734v13.654c0 .176-.173.349-.349.349h-76.036c-.176 0-.349-.173-.349-.349zm38.367-80.405c-69.292 0-125.463 56.172-125.463 125.463 0 69.292 56.172 125.463 125.463 125.463 69.291.001 125.463-56.171 125.463-125.462 0-69.292-56.172-125.464-125.463-125.464zm88.876 129.149v54.933c0 11.564-9.432 20.996-20.996 20.996h-135.761c-11.564 0-20.996-9.432-20.996-20.996v-54.935c-4.956-5.032-7.914-11.24-7.914-18.402v-31.682c0-8.06 6.585-14.659 14.659-14.659h39.466v-5.908c0-12.065 9.843-21.907 21.908-21.907h41.52c12.065 0 21.907 9.843 21.907 21.907v5.908h39.465c8.084 0 14.659 6.575 14.659 14.659v31.682c-.002 7.164-2.96 13.371-7.917 18.404zm-16 10.199v44.734c0 2.732-2.265 4.996-4.996 4.996h-135.761c-2.731 0-4.996-2.265-4.996-4.996v-44.728c10.348 4.067 24.806 6.889 40.807 8.472 2.139 15.8 15.685 27.987 32.07 27.987 16.39 0 29.94-12.196 32.071-28.003 16.015-1.59 30.477-4.413 40.805-8.462zm-369.358-284.754c-13.315 0-24.142-10.827-24.142-24.142v-30.365h-1.345c-17.938 0-32.568 14.63-32.568 32.568v25.289h403.841v-25.289c0-17.938-14.63-32.568-32.568-32.568h-1.345v30.366c0 13.315-10.827 24.142-24.142 24.142h-16.144c-13.315 0-24.142-10.827-24.142-24.142v-30.366h-26.101v30.366c0 13.315-10.826 24.142-24.141 24.142h-16.145c-13.315 0-24.142-10.827-24.142-24.142v-30.366h-26.101v30.366c0 13.315-10.827 24.142-24.142 24.142h-16.145c-13.315 0-24.142-10.827-24.142-24.142v-30.366h-26.101v30.366c0 13.315-10.827 24.142-24.142 24.142h-16.143zm0-81.671h16.144c4.484 0 8.142 3.657 8.142 8.142v49.387c0 4.484-3.658 8.142-8.142 8.142h-16.144c-4.485 0-8.142-3.658-8.142-8.142v-49.387c0-4.484 3.657-8.142 8.142-8.142zm271.587 0h16.144c4.484 0 8.142 3.657 8.142 8.142v49.387c0 4.484-3.658 8.142-8.142 8.142h-16.144c-4.484 0-8.142-3.658-8.142-8.142v-49.387c0-4.484 3.658-8.142 8.142-8.142zm-90.529 0h16.145c4.484 0 8.142 3.657 8.142 8.142v49.387c0 4.484-3.657 8.142-8.142 8.142h-16.145c-4.484 0-8.142-3.658-8.142-8.142v-49.387c0-4.484 3.657-8.142 8.142-8.142zm-90.53 0h16.145c4.485 0 8.142 3.657 8.142 8.142v49.387c0 4.484-3.657 8.142-8.142 8.142h-16.145c-4.484 0-8.142-3.658-8.142-8.142v-49.387c.001-4.484 3.658-8.142 8.142-8.142zm-148.583 101.021v233.092c0 17.937 14.63 32.568 32.568 32.568h181.204c-.461-4.651-.698-9.368-.698-14.14 0-10.85 1.221-21.415 3.534-31.564h-30.819c-4.406 0-8-3.594-8-8v-32.264c0-4.406 3.594-8 8-8h32.264c4.406 0 8 3.594 8 8v12.554c6.221-13.462 14.495-25.781 24.421-36.554h-.421c-4.406 0-8-3.594-8-8v-32.264c0-4.406 3.594-8 8-8h32.264c4.406 0 8 3.594 8 8v10.012c5.158-2.633 10.5-4.958 16-6.952v-3.06c0-4.406 3.594-8 8-8h32.264c2.349 0 4.467 1.021 5.933 2.643.673-.009 1.348-.014 2.023-.014 17.34 0 33.952 3.12 49.304 8.829v-118.885h-403.841zm97.525 211.956c0 4.406-3.594 8-8 8h-32.264c-4.406 0-8-3.594-8-8v-32.264c0-4.406 3.594-8 8-8h32.264c4.406 0 8 3.594 8 8zm0-64.264c0 4.406-3.594 8-8 8h-32.264c-4.406 0-8-3.594-8-8v-32.264c0-4.406 3.594-8 8-8h32.264c4.406 0 8 3.594 8 8zm0-64.264c0 4.406-3.594 8-8 8h-32.264c-4.406 0-8-3.594-8-8v-32.264c0-4.406 3.594-8 8-8h32.264c4.406 0 8 3.594 8 8zm64.264 128.528c0 4.406-3.594 8-8 8h-32.264c-4.406 0-8-3.594-8-8v-32.264c0-4.406 3.594-8 8-8h32.264c4.406 0 8 3.594 8 8zm0-64.264c0 4.406-3.594 8-8 8h-32.264c-4.406 0-8-3.594-8-8v-32.264c0-4.406 3.594-8 8-8h32.264c4.406 0 8 3.594 8 8zm0-64.264c0 4.406-3.594 8-8 8h-32.264c-4.406 0-8-3.594-8-8v-32.264c0-4.406 3.594-8 8-8h32.264c4.406 0 8 3.594 8 8zm64.264 64.264c0 4.406-3.594 8-8 8h-32.264c-4.406 0-8-3.594-8-8v-32.264c0-4.406 3.594-8 8-8h32.264c4.406 0 8 3.594 8 8zm0-64.264c0 4.406-3.594 8-8 8h-32.264c-4.406 0-8-3.594-8-8v-32.264c0-4.406 3.594-8 8-8h32.264c4.406 0 8 3.594 8 8zm64.264 0c0 4.406-3.594 8-8 8h-32.264c-4.406 0-8-3.594-8-8v-32.264c0-4.406 3.594-8 8-8h32.264c4.406 0 8 3.594 8 8zm64.264 0c0 4.406-3.594 8-8 8h-32.264c-4.406 0-8-3.594-8-8v-32.264c0-4.406 3.594-8 8-8h32.264c4.406 0 8 3.594 8 8z" fill-rule="evenodd"/></svg>