<?xml version="1.0" encoding="UTF-8"?>
<svg xmlns="http://www.w3.org/2000/svg" id="Layer_3" data-name="Layer 3" viewBox="0 0 64 64" width="512" height="512"><circle cx="32" cy="32" r="3"/><path d="M49,35a13.922,13.922,0,0,1,4.668.817A21.99,21.99,0,1,0,35.817,53.668,13.962,13.962,0,0,1,49,35Zm-1-4h4v2H48ZM16,33H12V31h4ZM31,12h2v4H31Zm1,25a4.915,4.915,0,0,1-.532-.054L25.414,43l1.293,1.293A1,1,0,0,1,26,46H19a1,1,0,0,1-1-1V38a1,1,0,0,1,1.707-.707L21,38.586l6.054-6.054A4.915,4.915,0,0,1,27,32a4.977,4.977,0,0,1,2-3.974V24H28a1,1,0,0,1-.707-1.707l4-4a1,1,0,0,1,1.414,0l4,4A1,1,0,0,1,36,24H35v4.026A4.983,4.983,0,0,1,32,37Z"/><path d="M36.632,55.544A24.027,24.027,0,1,1,55.544,36.632a14.11,14.11,0,0,1,4.28,3.5A29.048,29.048,0,1,0,40.133,59.824,14.087,14.087,0,0,1,36.632,55.544Z"/><path d="M31,23v4.1a5,5,0,0,1,2,0V23a1,1,0,0,1,.649-.937L32,20.414l-1.649,1.649A1,1,0,0,1,31,23Z"/><path d="M27.773,34.642l-6.066,6.065a1,1,0,0,1-1.414,0L20,40.414V44h3.586l-.293-.293a1,1,0,0,1,0-1.414l6.065-6.066A5,5,0,0,1,27.773,34.642Z"/><path d="M49,37A12,12,0,1,0,61,49,12.013,12.013,0,0,0,49,37Zm0,15a3,3,0,0,1-3,3H44a3,3,0,0,1-3-3V46a3,3,0,0,1,3-3h2a3,3,0,0,1,3,3Zm7-7H54V55H52V45H50V43h6Z"/><rect x="43" y="45" width="4" height="8" rx="1"/></svg>
